<svg id="레이어_1" data-name="레이어 1" xmlns="http://www.w3.org/2000/svg" viewBox="0 0 232.99 144"><defs><style>.cls-1{fill:#f29224;}.cls-2{fill:#fff;}</style></defs><rect class="cls-1" x="45.17" y="14.75" width="143.74" height="113.62" rx="13.62"/><path class="cls-1" d="M45.3,38.28a38.69,38.69,0,0,1-23.8,29.3l-9.15,3.65,9.15,3.65c12.48,5,21.4,16.72,23.71,30Z"/><path class="cls-1" d="M188.92,38.28a38.67,38.67,0,0,0,23.8,29.3l9.15,3.65-9.15,3.65c-12.49,5-21.41,16.72-23.72,30Z"/><rect class="cls-2" x="74.77" y="30.22" width="10.11" height="51.85"/><path class="cls-2" d="M117.1,82h0c-5.94,0-10.75-1-10.75-7s4.81-7.61,10.75-7.61,10.18,2.12,12.84,6.46l5.93-4.17C133.94,64.19,126,59.3,117.1,59.3c-10.43,0-18.89,5.32-18.89,15.75s8.4,15.08,18.77,15.11h0c5.94,0,10.76,1,10.76,7s-4.82,7.62-10.76,7.62-10.17-2.13-12.83-6.47l-5.94,4.18c1.94,5.54,9.88,10.42,18.77,10.42,10.44,0,18.89-5.31,18.89-15.75S127.48,82.07,117.1,82Z"/><rect class="cls-2" x="149.21" y="30.22" width="10.11" height="51.85"/></svg>